<svg version="1.1" xmlns="http://www.w3.org/2000/svg" id="bundle">

    <symbol id="menu" viewBox="0 0 35 35" fill="none" xmlns="http://www.w3.org/2000/svg">
        <path d="M0.844 6.050c-0.256-0.256-0.381-0.581-0.381-0.975s0.125-0.719 0.381-0.975 0.581-0.381 0.975-0.381h28.512c0.394 0 0.719 0.125 0.975 0.381s0.381 0.581 0.381 0.975-0.125 0.719-0.381 0.975-0.581 0.381-0.975 0.381h-28.512c-0.394 0-0.719-0.125-0.975-0.381zM31.306 14.963c0.256 0.256 0.381 0.581 0.381 0.975s-0.125 0.719-0.381 0.975-0.581 0.381-0.975 0.381h-28.512c-0.394 0-0.719-0.125-0.975-0.381s-0.381-0.581-0.381-0.975 0.125-0.719 0.381-0.975 0.581-0.381 0.975-0.381h28.512c0.394 0 0.719 0.125 0.975 0.381zM31.306 25.819c0.256 0.256 0.381 0.581 0.381 0.975s-0.125 0.719-0.381 0.975-0.581 0.381-0.975 0.381h-28.512c-0.394 0-0.719-0.125-0.975-0.381s-0.381-0.581-0.381-0.975 0.125-0.719 0.381-0.975 0.581-0.381 0.975-0.381h28.512c0.394 0 0.719 0.131 0.975 0.381z" fill="currentColor"></path>
    </symbol>

    <symbol id="close" viewBox="0 0 24 24" fill="none" xmlns="http://www.w3.org/2000/svg">
        <path fill-rule="evenodd" clip-rule="evenodd" d="M17.707 1.70648L16.293 0.29248L8.99997 7.58548L1.70697 0.29248L0.292969 1.70648L7.58597 8.99948L0.292969 16.2925L1.70697 17.7065L8.99997 10.4145L16.293 17.7065L17.707 16.2925L10.414 8.99948L17.707 1.70648Z" fill="currentColor"/>
    </symbol>

    <symbol id="github" viewBox="0 0 100 100" fill="none" xmlns="http://www.w3.org/2000/svg">
        <path fill-rule="evenodd" clip-rule="evenodd" d="M48.854 0C21.839 0 0 22 0 49.217c0 21.756 13.993 40.172 33.405 46.69 2.427.49 3.316-1.059 3.316-2.362 0-1.141-.08-5.052-.08-9.127-13.59 2.934-16.42-5.867-16.42-5.867-2.184-5.704-5.42-7.17-5.42-7.17-4.448-3.015.324-3.015.324-3.015 4.934.326 7.523 5.052 7.523 5.052 4.367 7.496 11.404 5.378 14.235 4.074.404-3.178 1.699-5.378 3.074-6.6-10.839-1.141-22.243-5.378-22.243-24.283 0-5.378 1.94-9.778 5.014-13.2-.485-1.222-2.184-6.275.486-13.038 0 0 4.125-1.304 13.426 5.052a46.97 46.97 0 0 1 12.214-1.63c4.125 0 8.33.571 12.213 1.63 9.302-6.356 13.427-5.052 13.427-5.052 2.67 6.763.97 11.816.485 13.038 3.155 3.422 5.015 7.822 5.015 13.2 0 18.905-11.404 23.06-22.324 24.283 1.78 1.548 3.316 4.481 3.316 9.126 0 6.6-.08 11.897-.08 13.526 0 1.304.89 2.853 3.316 2.364 19.412-6.52 33.405-24.935 33.405-46.691C97.707 22 75.788 0 48.854 0z" fill="currentColor"/>
    </symbol>
    
    <symbol id="collapse" viewBox="0 0 24 24" fill="none" xmlns="http://www.w3.org/2000/svg">
        <path d="M6 14.5L10.5 14.5V19M19 10.5H14.5L14.5 6" stroke="currentColor" stroke-width="1.2" />
        <path d="M10.5 14.5L6 19" stroke="currentColor" stroke-width="1.2" />
        <path d="M14.5 10.5L19 6" stroke="currentColor" stroke-width="1.2" />
    </symbol>
    
    <symbol id="chevron" viewBox="0 0 18 18" fill="none" xmlns="http://www.w3.org/2000/svg">
        <path stroke="currentColor" stroke-linecap="round" stroke-linejoin="round" stroke-width="2" d="M4 7l6 6 6-6"/>
    </symbol>

</svg>